<mxfile host="app.diagrams.net" modified="2021-03-09T13:17:22.644Z" agent="5.0 (X11; Linux x86_64) AppleWebKit/537.36 (KHTML, like Gecko) Chrome/86.0.4240.111 Safari/537.36" etag="Wxu8K6sqJXQAyDI4pJKB" version="14.4.2" type="github">
  <diagram id="ngEzr7msqsiaSPk3q3uV" name="Page-1">
    <mxGraphModel dx="4278" dy="1194" grid="0" gridSize="10" guides="1" tooltips="1" connect="1" arrows="1" fold="1" page="1" pageScale="1" pageWidth="2339" pageHeight="3300" background="#ffffff" math="0" shadow="0">
      <root>
        <mxCell id="0" />
        <mxCell id="1" parent="0" />
        <mxCell id="FGcitoF9XhkqtCpfOzEW-98" value="" style="rounded=0;whiteSpace=wrap;html=1;dashed=1;fillColor=#f8cecc;strokeColor=#b85450;" vertex="1" parent="1">
          <mxGeometry x="352" y="1671" width="2511" height="448" as="geometry" />
        </mxCell>
        <mxCell id="FGcitoF9XhkqtCpfOzEW-97" value="" style="rounded=0;whiteSpace=wrap;html=1;dashed=1;fillColor=#d5e8d4;strokeColor=#82b366;" vertex="1" parent="1">
          <mxGeometry x="350" y="439" width="2502" height="207" as="geometry" />
        </mxCell>
        <mxCell id="FGcitoF9XhkqtCpfOzEW-53" value="" style="rounded=0;whiteSpace=wrap;html=1;dashed=1;fillColor=#dae8fc;strokeColor=#6c8ebf;" vertex="1" parent="1">
          <mxGeometry x="354" y="1073" width="2509" height="593" as="geometry" />
        </mxCell>
        <mxCell id="FGcitoF9XhkqtCpfOzEW-52" value="" style="rounded=0;whiteSpace=wrap;html=1;dashed=1;fillColor=#fff2cc;strokeColor=#d6b656;" vertex="1" parent="1">
          <mxGeometry x="355" y="730" width="2503" height="250" as="geometry" />
        </mxCell>
        <mxCell id="FGcitoF9XhkqtCpfOzEW-55" style="edgeStyle=orthogonalEdgeStyle;rounded=0;orthogonalLoop=1;jettySize=auto;html=1;exitX=0.5;exitY=1;exitDx=0;exitDy=0;entryX=0;entryY=0.5;entryDx=0;entryDy=0;" edge="1" parent="1" source="FGcitoF9XhkqtCpfOzEW-1" target="FGcitoF9XhkqtCpfOzEW-3">
          <mxGeometry relative="1" as="geometry">
            <Array as="points">
              <mxPoint x="1430" y="210" />
            </Array>
          </mxGeometry>
        </mxCell>
        <mxCell id="FGcitoF9XhkqtCpfOzEW-56" style="edgeStyle=orthogonalEdgeStyle;rounded=0;orthogonalLoop=1;jettySize=auto;html=1;exitX=0.5;exitY=1;exitDx=0;exitDy=0;entryX=1;entryY=0.5;entryDx=0;entryDy=0;" edge="1" parent="1" source="FGcitoF9XhkqtCpfOzEW-1" target="FGcitoF9XhkqtCpfOzEW-2">
          <mxGeometry relative="1" as="geometry" />
        </mxCell>
        <mxCell id="FGcitoF9XhkqtCpfOzEW-58" style="edgeStyle=orthogonalEdgeStyle;rounded=0;orthogonalLoop=1;jettySize=auto;html=1;exitX=0.5;exitY=1;exitDx=0;exitDy=0;" edge="1" parent="1" source="FGcitoF9XhkqtCpfOzEW-1" target="FGcitoF9XhkqtCpfOzEW-4">
          <mxGeometry relative="1" as="geometry" />
        </mxCell>
        <mxCell id="FGcitoF9XhkqtCpfOzEW-1" value="开始" style="ellipse;whiteSpace=wrap;html=1;" vertex="1" parent="1">
          <mxGeometry x="1370" y="80" width="120" height="80" as="geometry" />
        </mxCell>
        <mxCell id="FGcitoF9XhkqtCpfOzEW-59" style="edgeStyle=orthogonalEdgeStyle;rounded=0;orthogonalLoop=1;jettySize=auto;html=1;exitX=0.5;exitY=1;exitDx=0;exitDy=0;entryX=0.5;entryY=0;entryDx=0;entryDy=0;" edge="1" parent="1" source="FGcitoF9XhkqtCpfOzEW-2" target="FGcitoF9XhkqtCpfOzEW-5">
          <mxGeometry relative="1" as="geometry">
            <Array as="points">
              <mxPoint x="1335" y="343" />
              <mxPoint x="1430" y="343" />
            </Array>
          </mxGeometry>
        </mxCell>
        <mxCell id="FGcitoF9XhkqtCpfOzEW-2" value="生产dt" style="rounded=0;whiteSpace=wrap;html=1;" vertex="1" parent="1">
          <mxGeometry x="1275" y="180" width="120" height="60" as="geometry" />
        </mxCell>
        <mxCell id="FGcitoF9XhkqtCpfOzEW-60" style="edgeStyle=orthogonalEdgeStyle;rounded=0;orthogonalLoop=1;jettySize=auto;html=1;exitX=0.5;exitY=1;exitDx=0;exitDy=0;entryX=0.5;entryY=0;entryDx=0;entryDy=0;" edge="1" parent="1" source="FGcitoF9XhkqtCpfOzEW-3" target="FGcitoF9XhkqtCpfOzEW-5">
          <mxGeometry relative="1" as="geometry">
            <Array as="points">
              <mxPoint x="1520" y="343" />
              <mxPoint x="1430" y="343" />
            </Array>
          </mxGeometry>
        </mxCell>
        <mxCell id="FGcitoF9XhkqtCpfOzEW-3" value="生产gt" style="rounded=0;whiteSpace=wrap;html=1;" vertex="1" parent="1">
          <mxGeometry x="1460" y="180" width="120" height="60" as="geometry" />
        </mxCell>
        <mxCell id="FGcitoF9XhkqtCpfOzEW-61" style="edgeStyle=orthogonalEdgeStyle;rounded=0;orthogonalLoop=1;jettySize=auto;html=1;exitX=0.5;exitY=1;exitDx=0;exitDy=0;entryX=0.5;entryY=0;entryDx=0;entryDy=0;" edge="1" parent="1" source="FGcitoF9XhkqtCpfOzEW-4" target="FGcitoF9XhkqtCpfOzEW-5">
          <mxGeometry relative="1" as="geometry" />
        </mxCell>
        <mxCell id="FGcitoF9XhkqtCpfOzEW-4" value="构造dataset文件夹" style="rounded=0;whiteSpace=wrap;html=1;" vertex="1" parent="1">
          <mxGeometry x="1370" y="270" width="120" height="60" as="geometry" />
        </mxCell>
        <mxCell id="FGcitoF9XhkqtCpfOzEW-62" style="edgeStyle=orthogonalEdgeStyle;rounded=0;orthogonalLoop=1;jettySize=auto;html=1;exitX=0.5;exitY=1;exitDx=0;exitDy=0;entryX=0.5;entryY=0;entryDx=0;entryDy=0;" edge="1" parent="1" source="FGcitoF9XhkqtCpfOzEW-5" target="FGcitoF9XhkqtCpfOzEW-7">
          <mxGeometry relative="1" as="geometry" />
        </mxCell>
        <mxCell id="FGcitoF9XhkqtCpfOzEW-5" value="移动dt / gt 到 dataset文件夹中的originial_data" style="rounded=0;whiteSpace=wrap;html=1;" vertex="1" parent="1">
          <mxGeometry x="1285" y="360" width="290" height="60" as="geometry" />
        </mxCell>
        <mxCell id="FGcitoF9XhkqtCpfOzEW-63" style="edgeStyle=orthogonalEdgeStyle;rounded=0;orthogonalLoop=1;jettySize=auto;html=1;exitX=0.5;exitY=1;exitDx=0;exitDy=0;" edge="1" parent="1" source="FGcitoF9XhkqtCpfOzEW-7" target="FGcitoF9XhkqtCpfOzEW-8">
          <mxGeometry relative="1" as="geometry" />
        </mxCell>
        <mxCell id="FGcitoF9XhkqtCpfOzEW-7" value="划分数据集（train/valid/test）" style="rounded=0;whiteSpace=wrap;html=1;" vertex="1" parent="1">
          <mxGeometry x="1320" y="460" width="220" height="60" as="geometry" />
        </mxCell>
        <mxCell id="FGcitoF9XhkqtCpfOzEW-64" style="edgeStyle=orthogonalEdgeStyle;rounded=0;orthogonalLoop=1;jettySize=auto;html=1;exitX=0.5;exitY=1;exitDx=0;exitDy=0;" edge="1" parent="1" source="FGcitoF9XhkqtCpfOzEW-8" target="FGcitoF9XhkqtCpfOzEW-11">
          <mxGeometry relative="1" as="geometry" />
        </mxCell>
        <mxCell id="FGcitoF9XhkqtCpfOzEW-8" value="对每一个数据包分别进行数据提取，将处理结果存入collection_data" style="rounded=0;whiteSpace=wrap;html=1;" vertex="1" parent="1">
          <mxGeometry x="1230" y="550" width="400" height="60" as="geometry" />
        </mxCell>
        <mxCell id="FGcitoF9XhkqtCpfOzEW-65" style="edgeStyle=orthogonalEdgeStyle;rounded=0;orthogonalLoop=1;jettySize=auto;html=1;exitX=1;exitY=0.5;exitDx=0;exitDy=0;" edge="1" parent="1" source="FGcitoF9XhkqtCpfOzEW-11" target="FGcitoF9XhkqtCpfOzEW-12">
          <mxGeometry relative="1" as="geometry" />
        </mxCell>
        <mxCell id="FGcitoF9XhkqtCpfOzEW-121" style="edgeStyle=orthogonalEdgeStyle;rounded=0;orthogonalLoop=1;jettySize=auto;html=1;exitX=0;exitY=0.5;exitDx=0;exitDy=0;" edge="1" parent="1" source="FGcitoF9XhkqtCpfOzEW-11" target="FGcitoF9XhkqtCpfOzEW-120">
          <mxGeometry relative="1" as="geometry" />
        </mxCell>
        <mxCell id="FGcitoF9XhkqtCpfOzEW-11" value="if in test" style="rhombus;whiteSpace=wrap;html=1;" vertex="1" parent="1">
          <mxGeometry x="1390" y="650" width="80" height="80" as="geometry" />
        </mxCell>
        <mxCell id="FGcitoF9XhkqtCpfOzEW-66" style="edgeStyle=orthogonalEdgeStyle;rounded=0;orthogonalLoop=1;jettySize=auto;html=1;exitX=0.5;exitY=1;exitDx=0;exitDy=0;" edge="1" parent="1" source="FGcitoF9XhkqtCpfOzEW-12" target="FGcitoF9XhkqtCpfOzEW-19">
          <mxGeometry relative="1" as="geometry" />
        </mxCell>
        <mxCell id="FGcitoF9XhkqtCpfOzEW-12" value="生成MIl_data" style="rounded=0;whiteSpace=wrap;html=1;" vertex="1" parent="1">
          <mxGeometry x="1868" y="750" width="120" height="60" as="geometry" />
        </mxCell>
        <mxCell id="FGcitoF9XhkqtCpfOzEW-87" style="edgeStyle=orthogonalEdgeStyle;rounded=0;orthogonalLoop=1;jettySize=auto;html=1;exitX=0.5;exitY=1;exitDx=0;exitDy=0;entryX=0.5;entryY=0;entryDx=0;entryDy=0;" edge="1" parent="1" source="FGcitoF9XhkqtCpfOzEW-13" target="FGcitoF9XhkqtCpfOzEW-42">
          <mxGeometry relative="1" as="geometry" />
        </mxCell>
        <mxCell id="FGcitoF9XhkqtCpfOzEW-13" value="按时间戳匹配dt 和 gt，合并为一个文件，丢弃未匹配成功的数据" style="rounded=0;whiteSpace=wrap;html=1;" vertex="1" parent="1">
          <mxGeometry x="620" y="1080" width="390" height="60" as="geometry" />
        </mxCell>
        <mxCell id="FGcitoF9XhkqtCpfOzEW-109" style="edgeStyle=orthogonalEdgeStyle;rounded=0;orthogonalLoop=1;jettySize=auto;html=1;exitX=0.5;exitY=1;exitDx=0;exitDy=0;entryX=0.5;entryY=0;entryDx=0;entryDy=0;" edge="1" parent="1" source="FGcitoF9XhkqtCpfOzEW-18" target="FGcitoF9XhkqtCpfOzEW-108">
          <mxGeometry relative="1" as="geometry" />
        </mxCell>
        <mxCell id="FGcitoF9XhkqtCpfOzEW-18" value="根据模型需求，生成train_data/valid_data" style="rounded=0;whiteSpace=wrap;html=1;" vertex="1" parent="1">
          <mxGeometry x="935" y="1703" width="290" height="60" as="geometry" />
        </mxCell>
        <mxCell id="FGcitoF9XhkqtCpfOzEW-67" style="edgeStyle=orthogonalEdgeStyle;rounded=0;orthogonalLoop=1;jettySize=auto;html=1;exitX=0.5;exitY=1;exitDx=0;exitDy=0;" edge="1" parent="1" source="FGcitoF9XhkqtCpfOzEW-19" target="FGcitoF9XhkqtCpfOzEW-20">
          <mxGeometry relative="1" as="geometry" />
        </mxCell>
        <mxCell id="FGcitoF9XhkqtCpfOzEW-19" value="上传dt" style="rounded=0;whiteSpace=wrap;html=1;" vertex="1" parent="1">
          <mxGeometry x="1868" y="830" width="120" height="60" as="geometry" />
        </mxCell>
        <mxCell id="FGcitoF9XhkqtCpfOzEW-68" style="edgeStyle=orthogonalEdgeStyle;rounded=0;orthogonalLoop=1;jettySize=auto;html=1;exitX=0.5;exitY=1;exitDx=0;exitDy=0;" edge="1" parent="1" source="FGcitoF9XhkqtCpfOzEW-20" target="FGcitoF9XhkqtCpfOzEW-21">
          <mxGeometry relative="1" as="geometry" />
        </mxCell>
        <mxCell id="FGcitoF9XhkqtCpfOzEW-20" value="上传gt" style="rounded=0;whiteSpace=wrap;html=1;" vertex="1" parent="1">
          <mxGeometry x="1868" y="910" width="120" height="60" as="geometry" />
        </mxCell>
        <mxCell id="FGcitoF9XhkqtCpfOzEW-69" style="edgeStyle=orthogonalEdgeStyle;rounded=0;orthogonalLoop=1;jettySize=auto;html=1;exitX=0.5;exitY=1;exitDx=0;exitDy=0;" edge="1" parent="1" source="FGcitoF9XhkqtCpfOzEW-21" target="FGcitoF9XhkqtCpfOzEW-23">
          <mxGeometry relative="1" as="geometry" />
        </mxCell>
        <mxCell id="FGcitoF9XhkqtCpfOzEW-21" value="匹配dt 和 gt 数据包" style="rounded=0;whiteSpace=wrap;html=1;" vertex="1" parent="1">
          <mxGeometry x="1868" y="990" width="120" height="60" as="geometry" />
        </mxCell>
        <mxCell id="FGcitoF9XhkqtCpfOzEW-22" style="edgeStyle=orthogonalEdgeStyle;rounded=0;orthogonalLoop=1;jettySize=auto;html=1;exitX=0.5;exitY=1;exitDx=0;exitDy=0;" edge="1" parent="1" source="FGcitoF9XhkqtCpfOzEW-19" target="FGcitoF9XhkqtCpfOzEW-19">
          <mxGeometry relative="1" as="geometry" />
        </mxCell>
        <mxCell id="FGcitoF9XhkqtCpfOzEW-70" style="edgeStyle=orthogonalEdgeStyle;rounded=0;orthogonalLoop=1;jettySize=auto;html=1;exitX=0.5;exitY=1;exitDx=0;exitDy=0;entryX=0.5;entryY=0;entryDx=0;entryDy=0;" edge="1" parent="1" source="FGcitoF9XhkqtCpfOzEW-23" target="FGcitoF9XhkqtCpfOzEW-30">
          <mxGeometry relative="1" as="geometry" />
        </mxCell>
        <mxCell id="FGcitoF9XhkqtCpfOzEW-23" value="按时间戳匹配dt 和 gt，合并为一个文件，同时保留未匹配成功的数据" style="rounded=0;whiteSpace=wrap;html=1;" vertex="1" parent="1">
          <mxGeometry x="1733" y="1080" width="390" height="60" as="geometry" />
        </mxCell>
        <mxCell id="FGcitoF9XhkqtCpfOzEW-85" style="edgeStyle=orthogonalEdgeStyle;rounded=0;orthogonalLoop=1;jettySize=auto;html=1;exitX=0.5;exitY=1;exitDx=0;exitDy=0;entryX=0;entryY=0.5;entryDx=0;entryDy=0;" edge="1" parent="1" source="FGcitoF9XhkqtCpfOzEW-26" target="FGcitoF9XhkqtCpfOzEW-33">
          <mxGeometry relative="1" as="geometry" />
        </mxCell>
        <mxCell id="FGcitoF9XhkqtCpfOzEW-26" value="将dt track id 变为负数，修改帧的格式为group&amp;nbsp; by&amp;nbsp; track_id" style="rounded=0;whiteSpace=wrap;html=1;" vertex="1" parent="1">
          <mxGeometry x="1395" y="1330" width="330" height="60" as="geometry" />
        </mxCell>
        <mxCell id="FGcitoF9XhkqtCpfOzEW-74" style="edgeStyle=orthogonalEdgeStyle;rounded=0;orthogonalLoop=1;jettySize=auto;html=1;exitX=0.5;exitY=1;exitDx=0;exitDy=0;" edge="1" parent="1" source="FGcitoF9XhkqtCpfOzEW-27" target="FGcitoF9XhkqtCpfOzEW-32">
          <mxGeometry relative="1" as="geometry" />
        </mxCell>
        <mxCell id="FGcitoF9XhkqtCpfOzEW-27" value="提取gt的 track _id 列表" style="rounded=0;whiteSpace=wrap;html=1;" vertex="1" parent="1">
          <mxGeometry x="2110" y="1330" width="300" height="60" as="geometry" />
        </mxCell>
        <mxCell id="FGcitoF9XhkqtCpfOzEW-79" style="edgeStyle=orthogonalEdgeStyle;rounded=0;orthogonalLoop=1;jettySize=auto;html=1;exitX=0.5;exitY=1;exitDx=0;exitDy=0;entryX=1;entryY=0.5;entryDx=0;entryDy=0;" edge="1" parent="1" source="FGcitoF9XhkqtCpfOzEW-28" target="FGcitoF9XhkqtCpfOzEW-33">
          <mxGeometry relative="1" as="geometry" />
        </mxCell>
        <mxCell id="FGcitoF9XhkqtCpfOzEW-28" value="使用gt的track id 更新 dt的track id, 然后修改帧的格式为group&amp;nbsp; by&amp;nbsp; track_id" style="rounded=0;whiteSpace=wrap;html=1;" vertex="1" parent="1">
          <mxGeometry x="2320" y="1510" width="410" height="60" as="geometry" />
        </mxCell>
        <mxCell id="FGcitoF9XhkqtCpfOzEW-72" style="edgeStyle=orthogonalEdgeStyle;rounded=0;orthogonalLoop=1;jettySize=auto;html=1;exitX=0;exitY=0.5;exitDx=0;exitDy=0;" edge="1" parent="1" source="FGcitoF9XhkqtCpfOzEW-29" target="FGcitoF9XhkqtCpfOzEW-26">
          <mxGeometry relative="1" as="geometry" />
        </mxCell>
        <mxCell id="FGcitoF9XhkqtCpfOzEW-73" style="edgeStyle=orthogonalEdgeStyle;rounded=0;orthogonalLoop=1;jettySize=auto;html=1;exitX=1;exitY=0.5;exitDx=0;exitDy=0;" edge="1" parent="1" source="FGcitoF9XhkqtCpfOzEW-29" target="FGcitoF9XhkqtCpfOzEW-27">
          <mxGeometry relative="1" as="geometry" />
        </mxCell>
        <mxCell id="FGcitoF9XhkqtCpfOzEW-29" value="第一个gt出现以前" style="rhombus;whiteSpace=wrap;html=1;" vertex="1" parent="1">
          <mxGeometry x="1858" y="1240" width="140" height="80" as="geometry" />
        </mxCell>
        <mxCell id="FGcitoF9XhkqtCpfOzEW-71" style="edgeStyle=orthogonalEdgeStyle;rounded=0;orthogonalLoop=1;jettySize=auto;html=1;exitX=0.5;exitY=1;exitDx=0;exitDy=0;" edge="1" parent="1" source="FGcitoF9XhkqtCpfOzEW-30" target="FGcitoF9XhkqtCpfOzEW-29">
          <mxGeometry relative="1" as="geometry" />
        </mxCell>
        <mxCell id="FGcitoF9XhkqtCpfOzEW-30" value="遍历每一帧" style="rounded=0;whiteSpace=wrap;html=1;" vertex="1" parent="1">
          <mxGeometry x="1868" y="1160" width="120" height="60" as="geometry" />
        </mxCell>
        <mxCell id="FGcitoF9XhkqtCpfOzEW-78" style="edgeStyle=orthogonalEdgeStyle;rounded=0;orthogonalLoop=1;jettySize=auto;html=1;exitX=0.5;exitY=1;exitDx=0;exitDy=0;entryX=0;entryY=0.5;entryDx=0;entryDy=0;" edge="1" parent="1" source="FGcitoF9XhkqtCpfOzEW-31" target="FGcitoF9XhkqtCpfOzEW-33">
          <mxGeometry relative="1" as="geometry" />
        </mxCell>
        <mxCell id="FGcitoF9XhkqtCpfOzEW-31" value="将dt track id 变为负数，修改帧的格式为group&amp;nbsp; by&amp;nbsp; track_id" style="rounded=0;whiteSpace=wrap;html=1;" vertex="1" parent="1">
          <mxGeometry x="1825" y="1510" width="370" height="60" as="geometry" />
        </mxCell>
        <mxCell id="FGcitoF9XhkqtCpfOzEW-76" style="edgeStyle=orthogonalEdgeStyle;rounded=0;orthogonalLoop=1;jettySize=auto;html=1;exitX=0;exitY=0.5;exitDx=0;exitDy=0;entryX=0.5;entryY=0;entryDx=0;entryDy=0;" edge="1" parent="1" source="FGcitoF9XhkqtCpfOzEW-32" target="FGcitoF9XhkqtCpfOzEW-31">
          <mxGeometry relative="1" as="geometry" />
        </mxCell>
        <mxCell id="FGcitoF9XhkqtCpfOzEW-77" style="edgeStyle=orthogonalEdgeStyle;rounded=0;orthogonalLoop=1;jettySize=auto;html=1;exitX=1;exitY=0.5;exitDx=0;exitDy=0;" edge="1" parent="1" source="FGcitoF9XhkqtCpfOzEW-32" target="FGcitoF9XhkqtCpfOzEW-28">
          <mxGeometry relative="1" as="geometry" />
        </mxCell>
        <mxCell id="FGcitoF9XhkqtCpfOzEW-32" value="dt 与 gt 匹配成功" style="rhombus;whiteSpace=wrap;html=1;" vertex="1" parent="1">
          <mxGeometry x="2195.5" y="1420" width="129" height="80" as="geometry" />
        </mxCell>
        <mxCell id="FGcitoF9XhkqtCpfOzEW-80" style="edgeStyle=orthogonalEdgeStyle;rounded=0;orthogonalLoop=1;jettySize=auto;html=1;exitX=0.5;exitY=1;exitDx=0;exitDy=0;entryX=0.5;entryY=0;entryDx=0;entryDy=0;" edge="1" parent="1" source="FGcitoF9XhkqtCpfOzEW-33" target="FGcitoF9XhkqtCpfOzEW-34">
          <mxGeometry relative="1" as="geometry" />
        </mxCell>
        <mxCell id="FGcitoF9XhkqtCpfOzEW-33" value="对于所有帧，生成mean 与 best字段" style="rounded=0;whiteSpace=wrap;html=1;" vertex="1" parent="1">
          <mxGeometry x="2100" y="1600" width="320" height="60" as="geometry" />
        </mxCell>
        <mxCell id="FGcitoF9XhkqtCpfOzEW-104" style="edgeStyle=orthogonalEdgeStyle;rounded=0;orthogonalLoop=1;jettySize=auto;html=1;exitX=0.5;exitY=1;exitDx=0;exitDy=0;" edge="1" parent="1" source="FGcitoF9XhkqtCpfOzEW-34" target="FGcitoF9XhkqtCpfOzEW-100">
          <mxGeometry relative="1" as="geometry" />
        </mxCell>
        <mxCell id="FGcitoF9XhkqtCpfOzEW-34" value="加载模型refine所有帧，生成MF字段" style="rounded=0;whiteSpace=wrap;html=1;" vertex="1" parent="1">
          <mxGeometry x="2080" y="1681" width="360" height="60" as="geometry" />
        </mxCell>
        <mxCell id="FGcitoF9XhkqtCpfOzEW-82" style="edgeStyle=orthogonalEdgeStyle;rounded=0;orthogonalLoop=1;jettySize=auto;html=1;exitX=0.5;exitY=1;exitDx=0;exitDy=0;entryX=0.5;entryY=0;entryDx=0;entryDy=0;" edge="1" parent="1" source="FGcitoF9XhkqtCpfOzEW-35" target="FGcitoF9XhkqtCpfOzEW-36">
          <mxGeometry relative="1" as="geometry" />
        </mxCell>
        <mxCell id="FGcitoF9XhkqtCpfOzEW-35" value="计算不取绝对值的err" style="rounded=0;whiteSpace=wrap;html=1;" vertex="1" parent="1">
          <mxGeometry x="2200" y="1851" width="120" height="60" as="geometry" />
        </mxCell>
        <mxCell id="FGcitoF9XhkqtCpfOzEW-83" style="edgeStyle=orthogonalEdgeStyle;rounded=0;orthogonalLoop=1;jettySize=auto;html=1;exitX=0.5;exitY=1;exitDx=0;exitDy=0;" edge="1" parent="1" source="FGcitoF9XhkqtCpfOzEW-36" target="FGcitoF9XhkqtCpfOzEW-37">
          <mxGeometry relative="1" as="geometry" />
        </mxCell>
        <mxCell id="FGcitoF9XhkqtCpfOzEW-36" value="计算vol" style="rounded=0;whiteSpace=wrap;html=1;" vertex="1" parent="1">
          <mxGeometry x="2200" y="1931" width="120" height="60" as="geometry" />
        </mxCell>
        <mxCell id="FGcitoF9XhkqtCpfOzEW-84" style="edgeStyle=orthogonalEdgeStyle;rounded=0;orthogonalLoop=1;jettySize=auto;html=1;exitX=0.5;exitY=1;exitDx=0;exitDy=0;entryX=0.5;entryY=0;entryDx=0;entryDy=0;" edge="1" parent="1" source="FGcitoF9XhkqtCpfOzEW-37" target="FGcitoF9XhkqtCpfOzEW-38">
          <mxGeometry relative="1" as="geometry" />
        </mxCell>
        <mxCell id="FGcitoF9XhkqtCpfOzEW-37" value="生成results" style="rounded=0;whiteSpace=wrap;html=1;" vertex="1" parent="1">
          <mxGeometry x="2200" y="2011" width="120" height="60" as="geometry" />
        </mxCell>
        <mxCell id="FGcitoF9XhkqtCpfOzEW-38" value="结束" style="ellipse;whiteSpace=wrap;html=1;" vertex="1" parent="1">
          <mxGeometry x="1390" y="2131" width="120" height="80" as="geometry" />
        </mxCell>
        <mxCell id="FGcitoF9XhkqtCpfOzEW-40" value="" style="endArrow=none;dashed=1;html=1;dashPattern=1 3;strokeWidth=2;" edge="1" parent="1">
          <mxGeometry width="50" height="50" relative="1" as="geometry">
            <mxPoint x="47" y="260" as="sourcePoint" />
            <mxPoint x="2959.714285714286" y="260" as="targetPoint" />
          </mxGeometry>
        </mxCell>
        <mxCell id="FGcitoF9XhkqtCpfOzEW-88" style="edgeStyle=orthogonalEdgeStyle;rounded=0;orthogonalLoop=1;jettySize=auto;html=1;exitX=0.5;exitY=1;exitDx=0;exitDy=0;" edge="1" parent="1" source="FGcitoF9XhkqtCpfOzEW-42" target="FGcitoF9XhkqtCpfOzEW-43">
          <mxGeometry relative="1" as="geometry" />
        </mxCell>
        <mxCell id="FGcitoF9XhkqtCpfOzEW-42" value="遍历每一帧" style="rounded=0;whiteSpace=wrap;html=1;" vertex="1" parent="1">
          <mxGeometry x="755" y="1160" width="120" height="60" as="geometry" />
        </mxCell>
        <mxCell id="FGcitoF9XhkqtCpfOzEW-89" style="edgeStyle=orthogonalEdgeStyle;rounded=0;orthogonalLoop=1;jettySize=auto;html=1;exitX=0.5;exitY=1;exitDx=0;exitDy=0;entryX=0.5;entryY=0;entryDx=0;entryDy=0;" edge="1" parent="1" source="FGcitoF9XhkqtCpfOzEW-43" target="FGcitoF9XhkqtCpfOzEW-46">
          <mxGeometry relative="1" as="geometry" />
        </mxCell>
        <mxCell id="FGcitoF9XhkqtCpfOzEW-43" value="提取gt的 track _id 列表" style="rounded=0;whiteSpace=wrap;html=1;" vertex="1" parent="1">
          <mxGeometry x="665" y="1330" width="300" height="60" as="geometry" />
        </mxCell>
        <mxCell id="FGcitoF9XhkqtCpfOzEW-92" style="edgeStyle=orthogonalEdgeStyle;rounded=0;orthogonalLoop=1;jettySize=auto;html=1;exitX=0.5;exitY=1;exitDx=0;exitDy=0;" edge="1" parent="1" source="FGcitoF9XhkqtCpfOzEW-44" target="FGcitoF9XhkqtCpfOzEW-47">
          <mxGeometry relative="1" as="geometry" />
        </mxCell>
        <mxCell id="FGcitoF9XhkqtCpfOzEW-44" value="使用gt的track id 更新 dt的track id, 然后修改帧的格式为group&amp;nbsp; by&amp;nbsp; track_id" style="rounded=0;whiteSpace=wrap;html=1;" vertex="1" parent="1">
          <mxGeometry x="875" y="1510" width="410" height="60" as="geometry" />
        </mxCell>
        <mxCell id="FGcitoF9XhkqtCpfOzEW-95" style="edgeStyle=orthogonalEdgeStyle;rounded=0;orthogonalLoop=1;jettySize=auto;html=1;exitX=0.5;exitY=1;exitDx=0;exitDy=0;entryX=0.5;entryY=0;entryDx=0;entryDy=0;" edge="1" parent="1" source="FGcitoF9XhkqtCpfOzEW-45" target="FGcitoF9XhkqtCpfOzEW-38">
          <mxGeometry relative="1" as="geometry">
            <Array as="points">
              <mxPoint x="565" y="2100" />
              <mxPoint x="1450" y="2100" />
            </Array>
          </mxGeometry>
        </mxCell>
        <mxCell id="FGcitoF9XhkqtCpfOzEW-45" value="删除该track id的数据" style="rounded=0;whiteSpace=wrap;html=1;" vertex="1" parent="1">
          <mxGeometry x="380" y="1510" width="370" height="60" as="geometry" />
        </mxCell>
        <mxCell id="FGcitoF9XhkqtCpfOzEW-90" style="edgeStyle=orthogonalEdgeStyle;rounded=0;orthogonalLoop=1;jettySize=auto;html=1;exitX=1;exitY=0.5;exitDx=0;exitDy=0;entryX=0.5;entryY=0;entryDx=0;entryDy=0;" edge="1" parent="1" source="FGcitoF9XhkqtCpfOzEW-46" target="FGcitoF9XhkqtCpfOzEW-44">
          <mxGeometry relative="1" as="geometry" />
        </mxCell>
        <mxCell id="FGcitoF9XhkqtCpfOzEW-91" style="edgeStyle=orthogonalEdgeStyle;rounded=0;orthogonalLoop=1;jettySize=auto;html=1;exitX=0;exitY=0.5;exitDx=0;exitDy=0;" edge="1" parent="1" source="FGcitoF9XhkqtCpfOzEW-46" target="FGcitoF9XhkqtCpfOzEW-45">
          <mxGeometry relative="1" as="geometry" />
        </mxCell>
        <mxCell id="FGcitoF9XhkqtCpfOzEW-46" value="dt 与 gt 匹配成功" style="rhombus;whiteSpace=wrap;html=1;" vertex="1" parent="1">
          <mxGeometry x="775" y="1420" width="80" height="80" as="geometry" />
        </mxCell>
        <mxCell id="FGcitoF9XhkqtCpfOzEW-99" style="edgeStyle=orthogonalEdgeStyle;rounded=0;orthogonalLoop=1;jettySize=auto;html=1;exitX=0.5;exitY=1;exitDx=0;exitDy=0;" edge="1" parent="1" source="FGcitoF9XhkqtCpfOzEW-47" target="FGcitoF9XhkqtCpfOzEW-18">
          <mxGeometry relative="1" as="geometry" />
        </mxCell>
        <mxCell id="FGcitoF9XhkqtCpfOzEW-47" value="对于所有帧，生成mean 与 best字段" style="rounded=0;whiteSpace=wrap;html=1;" vertex="1" parent="1">
          <mxGeometry x="920" y="1600" width="320" height="60" as="geometry" />
        </mxCell>
        <mxCell id="FGcitoF9XhkqtCpfOzEW-105" style="edgeStyle=orthogonalEdgeStyle;rounded=0;orthogonalLoop=1;jettySize=auto;html=1;exitX=0.5;exitY=1;exitDx=0;exitDy=0;" edge="1" parent="1" source="FGcitoF9XhkqtCpfOzEW-100" target="FGcitoF9XhkqtCpfOzEW-35">
          <mxGeometry relative="1" as="geometry" />
        </mxCell>
        <mxCell id="FGcitoF9XhkqtCpfOzEW-100" value="生成四点坐标" style="rounded=0;whiteSpace=wrap;html=1;dashed=1;" vertex="1" parent="1">
          <mxGeometry x="2200" y="1765" width="120" height="60" as="geometry" />
        </mxCell>
        <mxCell id="FGcitoF9XhkqtCpfOzEW-106" value="&lt;font style=&quot;font-size: 40px&quot;&gt;&lt;b&gt;手动过程&lt;/b&gt;&lt;/font&gt;" style="text;html=1;strokeColor=none;fillColor=none;align=center;verticalAlign=middle;whiteSpace=wrap;rounded=0;dashed=1;" vertex="1" parent="1">
          <mxGeometry x="-27" y="155" width="257" height="20" as="geometry" />
        </mxCell>
        <mxCell id="FGcitoF9XhkqtCpfOzEW-107" value="&lt;font style=&quot;font-size: 40px&quot;&gt;&lt;b&gt;自动过程&lt;/b&gt;&lt;/font&gt;" style="text;html=1;strokeColor=none;fillColor=none;align=center;verticalAlign=middle;whiteSpace=wrap;rounded=0;dashed=1;" vertex="1" parent="1">
          <mxGeometry x="-27" y="1205" width="257" height="20" as="geometry" />
        </mxCell>
        <mxCell id="FGcitoF9XhkqtCpfOzEW-112" style="edgeStyle=orthogonalEdgeStyle;rounded=0;orthogonalLoop=1;jettySize=auto;html=1;exitX=0.5;exitY=1;exitDx=0;exitDy=0;" edge="1" parent="1" source="FGcitoF9XhkqtCpfOzEW-108" target="FGcitoF9XhkqtCpfOzEW-111">
          <mxGeometry relative="1" as="geometry" />
        </mxCell>
        <mxCell id="FGcitoF9XhkqtCpfOzEW-108" value="训练模型" style="rounded=0;whiteSpace=wrap;html=1;" vertex="1" parent="1">
          <mxGeometry x="1020" y="1806" width="120" height="60" as="geometry" />
        </mxCell>
        <mxCell id="FGcitoF9XhkqtCpfOzEW-113" style="edgeStyle=orthogonalEdgeStyle;rounded=0;orthogonalLoop=1;jettySize=auto;html=1;exitX=0.5;exitY=1;exitDx=0;exitDy=0;entryX=0.5;entryY=0;entryDx=0;entryDy=0;" edge="1" parent="1" source="FGcitoF9XhkqtCpfOzEW-111" target="FGcitoF9XhkqtCpfOzEW-38">
          <mxGeometry relative="1" as="geometry">
            <Array as="points">
              <mxPoint x="1080" y="2100" />
              <mxPoint x="1450" y="2100" />
            </Array>
          </mxGeometry>
        </mxCell>
        <mxCell id="FGcitoF9XhkqtCpfOzEW-114" style="edgeStyle=orthogonalEdgeStyle;rounded=0;orthogonalLoop=1;jettySize=auto;html=1;exitX=1;exitY=0.5;exitDx=0;exitDy=0;entryX=0;entryY=0.5;entryDx=0;entryDy=0;" edge="1" parent="1" source="FGcitoF9XhkqtCpfOzEW-108" target="FGcitoF9XhkqtCpfOzEW-34">
          <mxGeometry relative="1" as="geometry" />
        </mxCell>
        <mxCell id="FGcitoF9XhkqtCpfOzEW-111" value="本地评测" style="rounded=0;whiteSpace=wrap;html=1;" vertex="1" parent="1">
          <mxGeometry x="1020" y="1906" width="120" height="60" as="geometry" />
        </mxCell>
        <mxCell id="FGcitoF9XhkqtCpfOzEW-116" value="&lt;font style=&quot;font-size: 40px&quot;&gt;&lt;b&gt;collection&lt;/b&gt;&lt;/font&gt;" style="text;html=1;strokeColor=none;fillColor=none;align=center;verticalAlign=middle;whiteSpace=wrap;rounded=0;dashed=1;" vertex="1" parent="1">
          <mxGeometry x="331" y="530" width="257" height="20" as="geometry" />
        </mxCell>
        <mxCell id="FGcitoF9XhkqtCpfOzEW-117" value="&lt;font style=&quot;font-size: 40px&quot;&gt;&lt;b&gt;for_mil&lt;/b&gt;&lt;/font&gt;" style="text;html=1;strokeColor=none;fillColor=none;align=center;verticalAlign=middle;whiteSpace=wrap;rounded=0;dashed=1;" vertex="1" parent="1">
          <mxGeometry x="313" y="885" width="257" height="20" as="geometry" />
        </mxCell>
        <mxCell id="FGcitoF9XhkqtCpfOzEW-118" value="&lt;font style=&quot;font-size: 40px&quot;&gt;&lt;b&gt;track&lt;/b&gt;&lt;/font&gt;" style="text;html=1;strokeColor=none;fillColor=none;align=center;verticalAlign=middle;whiteSpace=wrap;rounded=0;dashed=1;" vertex="1" parent="1">
          <mxGeometry x="301" y="1290" width="257" height="20" as="geometry" />
        </mxCell>
        <mxCell id="FGcitoF9XhkqtCpfOzEW-119" value="&lt;font style=&quot;font-size: 40px&quot;&gt;&lt;b&gt;refine&lt;br&gt;&lt;/b&gt;&lt;/font&gt;" style="text;html=1;strokeColor=none;fillColor=none;align=center;verticalAlign=middle;whiteSpace=wrap;rounded=0;dashed=1;" vertex="1" parent="1">
          <mxGeometry x="299" y="1826" width="257" height="20" as="geometry" />
        </mxCell>
        <mxCell id="FGcitoF9XhkqtCpfOzEW-122" style="edgeStyle=orthogonalEdgeStyle;rounded=0;orthogonalLoop=1;jettySize=auto;html=1;exitX=0.5;exitY=1;exitDx=0;exitDy=0;" edge="1" parent="1" source="FGcitoF9XhkqtCpfOzEW-120" target="FGcitoF9XhkqtCpfOzEW-13">
          <mxGeometry relative="1" as="geometry" />
        </mxCell>
        <mxCell id="FGcitoF9XhkqtCpfOzEW-120" value="匹配dt 和 gt 数据包" style="rounded=0;whiteSpace=wrap;html=1;" vertex="1" parent="1">
          <mxGeometry x="756" y="986" width="120" height="60" as="geometry" />
        </mxCell>
      </root>
    </mxGraphModel>
  </diagram>
</mxfile>
